<?xml version="1.0" encoding="UTF-8" standalone="no" ?>
<!DOCTYPE svg PUBLIC "-//W3C//DTD SVG 1.1//EN" "http://www.w3.org/Graphics/SVG/1.1/DTD/svg11.dtd">
<svg xmlns="http://www.w3.org/2000/svg" xmlns:xlink="http://www.w3.org/1999/xlink" version="1.1" width="500" height="500" viewBox="0 0 500 500" xml:space="preserve">
<desc>Created with Fabric.js 5.3.0</desc>
<defs>
</defs>
<g transform="matrix(3.66 0 0 0.135 250 255.3486529319)" id="UddnY_7zhtjXrzkRqGp7H"  >
<path style="stroke: rgb(105,105,105); stroke-width: 0; stroke-dasharray: none; stroke-linecap: butt; stroke-dashoffset: 0; stroke-linejoin: miter; stroke-miterlimit: 4; fill: rgb(114,114,114); fill-rule: nonzero; opacity: 1;"  transform=" translate(0, 0)" d="M -39.61965 -39.61965 L 39.61965 -39.61965 L 39.61965 39.61965 L -39.61965 39.61965 z" stroke-linecap="round" />
</g>
<g transform="matrix(0.135 0 0 0.845 110.3407290016 216.5213946117)" id="jddED38x93JgyYshEBIj9"  >
<path style="stroke: rgb(105,105,105); stroke-width: 0; stroke-dasharray: none; stroke-linecap: butt; stroke-dashoffset: 0; stroke-linejoin: miter; stroke-miterlimit: 4; fill: rgb(130,130,130); fill-rule: nonzero; opacity: 1;"  transform=" translate(0, 0)" d="M -39.61965 -39.61965 L 39.61965 -39.61965 L 39.61965 39.61965 L -39.61965 39.61965 z" stroke-linecap="round" />
</g>
<g transform="matrix(1 0 0 1 125.1980981658 202.5554675119)" id="kZ5bJYMRRrYMAeBXw8E7m"  >
<path style="stroke: rgb(89,89,89); stroke-width: 1; stroke-dasharray: none; stroke-linecap: butt; stroke-dashoffset: 0; stroke-linejoin: miter; stroke-miterlimit: 4; fill: rgb(255,255,255); fill-opacity: 0; fill-rule: nonzero; opacity: 1;"  transform=" translate(0, 0)" d="M -9.50872 13.96593 L 9.50871 -13.96592" stroke-linecap="round" />
</g>
<g transform="matrix(1 0 0 1 199.9330427892 211.3189381933)" id="2X-LK4SgW4ZZsdm6ISqN6"  >
<path style="stroke: rgb(89,89,89); stroke-width: 1; stroke-dasharray: none; stroke-linecap: butt; stroke-dashoffset: 0; stroke-linejoin: miter; stroke-miterlimit: 4; fill: rgb(255,255,255); fill-opacity: 0; fill-rule: nonzero; opacity: 1;"  transform=" translate(0, 0)" d="M -64.72623 -23.2294 L -43.03923 23.2294 L -20.852230000000002 -23.2294 L -0.2500100000000032 23.2294 L 23.521779999999996 -23.2294 L 43.33161 23.2294 L 64.72622 -8.763470000000002" stroke-linecap="round" />
</g>
<g transform="matrix(1 0 0 1 300.0245641838 210.3803475147)" id="KUB1zuEJhi7AQh-WfRdgK"  >
<path style="stroke: rgb(0,99,147); stroke-width: 0; stroke-dasharray: none; stroke-linecap: butt; stroke-dashoffset: 0; stroke-linejoin: miter; stroke-miterlimit: 4; fill: rgb(220,220,220); fill-rule: nonzero; opacity: 1;"  transform=" translate(0, 0)" d="M -39.61965 -39.61965 L 39.61965 -39.61965 L 39.61965 39.61965 L -39.61965 39.61965 z" stroke-linecap="round" />
</g>
</svg>